# xmcd
#
# Track frame offsets:
# 150
# 18869
# 36557
# 54064
# 70112
# 86341
# 102429
# 126667
# 140201
# 157442
# 175122
# 192110
#
# Disc length: 2791 seconds
#
#
# Revision: 5
# Processed by: cddbd v1.5.2PL0 Copyright (c) Steve Scherf et al.
# Submitted via: FreeRIP 2.951 
#
DISCID=aa0ae50c
DTITLE=Natasha St-Pier - Longueur d'onde
DYEAR=1900
DGENRE=Unknown
TTITLE0=Un ange frappe a ma porte
TTITLE1=Longueur d'onde
TTITLE2=Ce silence
TTITLE3=J'oublie
TTITLE4=Tiens moi a la vie
TTITLE5=Je peux tout quitter
TTITLE6=A l'amour comme a la guerre
TTITLE7=Tant que j'existerai
TTITLE8=Comme dans un train
TTITLE9=Je traverserai
TTITLE10=Je fais comme si
TTITLE11=12 De nous
EXTD=
EXTT0=
EXTT1=
EXTT2=
EXTT3=
EXTT4=
EXTT5=
EXTT6=
EXTT7=
EXTT8=
EXTT9=
EXTT10=
EXTT11=
PLAYORDER=
